<svg width="12" height="12" viewBox="0 0 12 12" fill="none" xmlns="http://www.w3.org/2000/svg">
<path d="M3.96974 1.227C3.82914 1.36765 3.75015 1.55838 3.75015 1.75725C3.75015 1.95612 3.82914 2.14685 3.96974 2.2875L7.68224 6L3.96974 9.7125C3.83312 9.85395 3.75753 10.0434 3.75924 10.2401C3.76095 10.4367 3.83982 10.6248 3.97888 10.7639C4.11793 10.9029 4.30604 10.9818 4.50269 10.9835C4.69934 10.9852 4.88879 10.9096 5.03024 10.773L9.27299 6.53025C9.4136 6.3896 9.49258 6.19887 9.49258 6C9.49258 5.80113 9.4136 5.6104 9.27299 5.46975L5.03024 1.227C4.8896 1.0864 4.69887 1.00741 4.49999 1.00741C4.30112 1.00741 4.11039 1.0864 3.96974 1.227Z" fill="#D71921"/>
</svg>
