<svg width="16" height="16" viewBox="0 0 16 16" fill="none" xmlns="http://www.w3.org/2000/svg">
<g clip-path="url(#clip0_5_21)">
<path d="M14.6887 6.52871L13.6591 10.6469L13.4157 11.6139L12.8557 13.8539C12.8522 13.8748 12.8383 13.8887 12.8348 13.9096L12.8314 13.913H3.16871C3.16181 13.8922 3.14787 13.8748 3.1444 13.8539L2.58434 11.6139L2.34087 10.6469L1.31131 6.52871C1.24175 6.25046 1.41219 5.96871 1.69044 5.89915C1.75656 5.88174 1.82262 5.87827 1.88519 5.88871C1.90259 5.82958 1.92697 5.7774 1.96522 5.72871C2.13912 5.49915 2.46612 5.45393 2.69565 5.62783L5.62083 7.85042L7.12696 4.07999C7.23483 3.81218 7.54083 3.68346 7.8052 3.78781C7.8852 3.81912 7.9478 3.86781 8.00002 3.92693C8.0522 3.86781 8.1183 3.81912 8.19483 3.78781C8.46264 3.68346 8.76523 3.81212 8.87308 4.07999L10.3792 7.85042L13.3044 5.62783C13.5339 5.45393 13.8609 5.49915 14.0348 5.72871C14.0731 5.7774 14.0975 5.82958 14.1148 5.88871C14.1774 5.87827 14.2435 5.88174 14.3096 5.89915C14.5878 5.96871 14.7582 6.25046 14.6887 6.52871Z" fill="#FFF780"/>
<path d="M12.8313 13.913L12.8348 13.9096C12.8382 13.8887 12.8521 13.8748 12.8556 13.8539L13.4156 11.6139L13.6591 10.647L14.6887 6.52874C14.7582 6.25049 14.5878 5.96874 14.3095 5.89918C14.2434 5.88177 14.1773 5.8783 14.1148 5.88874C14.0974 5.82961 14.073 5.77743 14.0348 5.72874C13.8608 5.49918 13.5339 5.45396 13.3043 5.62786L10.3791 7.85045L8.87302 4.07999C8.76514 3.81218 8.46261 3.68346 8.19477 3.78781C8.11824 3.81912 8.05217 3.86781 7.99995 3.92693V13.913L12.8313 13.913Z" fill="#FFC02E"/>
<path d="M13.4137 14.2608H2.63112C2.34309 14.2608 2.10938 14.0273 2.10938 13.7391C2.10938 13.4509 2.34309 13.2173 2.63112 13.2173H13.4137C13.7018 13.2173 13.9355 13.4509 13.9355 13.7391C13.9355 14.0273 13.7018 14.2608 13.4137 14.2608Z" fill="#FFC02E"/>
<path d="M7.99998 14.2608H13.4137C13.7018 14.2608 13.9355 14.0273 13.9355 13.7391C13.9355 13.4509 13.7018 13.2173 13.4137 13.2173H7.99998V14.2608Z" fill="#FFA73B"/>
<path d="M13.3287 6.4988C12.7184 5.88852 12.7184 4.89555 13.3287 4.28524C13.939 3.67496 14.9319 3.67496 15.5423 4.28524C16.1526 4.89552 16.1526 5.88849 15.5423 6.4988C14.932 7.10911 13.939 7.10911 13.3287 6.4988Z" fill="#FFC02E"/>
<path d="M0.457959 4.28384C1.06824 3.67356 2.06121 3.67356 2.67152 4.28384C3.28183 4.89412 3.2818 5.88708 2.67152 6.49739C2.06124 7.10771 1.06827 7.10767 0.457959 6.49739C-0.152352 5.88711 -0.152384 4.89415 0.457959 4.28384Z" fill="#FFC02E"/>
<path d="M7.99998 4.86959C8.86443 4.86959 9.5652 4.16882 9.5652 3.30437C9.5652 2.43993 8.86443 1.73915 7.99998 1.73915C7.13554 1.73915 6.43477 2.43993 6.43477 3.30437C6.43477 4.16882 7.13554 4.86959 7.99998 4.86959Z" fill="#FFC02E"/>
<path d="M9.5652 3.30437C9.5652 2.43993 8.86448 1.73915 7.99998 1.73915V4.86959C8.86448 4.86959 9.5652 4.16881 9.5652 3.30437Z" fill="#FFC02E"/>
</g>
<defs>
<clipPath id="clip0_5_21">
<rect width="16" height="16" fill="white"/>
</clipPath>
</defs>
</svg>
