<svg width="12" height="12" viewBox="0 0 12 12" fill="none" xmlns="http://www.w3.org/2000/svg">
<path fill-rule="evenodd" clip-rule="evenodd" d="M4.95346 1.99995C4.96895 1.99998 4.98447 2 5 2C5.01555 2 5.03105 1.99998 5.04655 1.99995C5.2309 1.99964 5.4121 1.99934 5.5735 2.04259C6.0049 2.15818 6.3418 2.49511 6.4574 2.92648C6.50065 3.0879 6.50035 3.2691 6.50005 3.45346C6.50005 3.46896 6.5 3.48447 6.5 3.5H10.5C10.7761 3.5 11 3.72386 11 4C11 4.27614 10.7761 4.5 10.5 4.5H6.5C6.5 4.51553 6.50005 4.53105 6.50005 4.54654C6.50035 4.7309 6.50065 4.91211 6.4574 5.07355C6.3418 5.5049 6.0049 5.84185 5.5735 5.9574C5.4121 6.00065 5.2309 6.00035 5.04655 6.00005C5.03105 6.00005 5.01555 6 5 6C4.98447 6 4.96896 6.00005 4.95346 6.00005C4.7691 6.00035 4.5879 6.00065 4.42648 5.9574C3.99511 5.84185 3.65817 5.5049 3.54259 5.07355C3.49934 4.9121 3.49964 4.7309 3.49995 4.54654C3.49997 4.53105 3.5 4.51553 3.5 4.5H2.5C2.22386 4.5 2 4.27614 2 4C2 3.72386 2.22386 3.5 2.5 3.5H3.5C3.5 3.48447 3.49997 3.46896 3.49995 3.45346C3.49964 3.2691 3.49934 3.0879 3.54259 2.92648C3.65817 2.49511 3.99511 2.15818 4.42648 2.04259C4.5879 1.99934 4.7691 1.99964 4.95346 1.99995ZM4.7493 3.00268C4.69597 3.00511 4.68343 3.00902 4.6853 3.00852C4.59902 3.03164 4.53164 3.09902 4.50852 3.1853C4.5081 3.18705 4.50482 3.20241 4.50268 3.2493C4.50012 3.30532 4.5 3.37922 4.5 3.5V4.5C4.5 4.62078 4.50012 4.69468 4.50268 4.7507C4.50511 4.80403 4.50902 4.81657 4.50852 4.81471C4.53164 4.90098 4.59902 4.96837 4.6853 4.99148C4.68343 4.99098 4.69597 4.99489 4.7493 4.99733C4.80531 4.99988 4.87922 5 5 5C5.1208 5 5.1947 4.99988 5.2507 4.99733C5.304 4.99489 5.31655 4.99098 5.3147 4.99148C5.401 4.96837 5.46835 4.90098 5.4915 4.81471C5.491 4.81657 5.4949 4.80403 5.4973 4.7507C5.4999 4.69468 5.5 4.62078 5.5 4.5V3.5C5.5 3.37922 5.4999 3.30532 5.4973 3.2493C5.4949 3.19598 5.491 3.18343 5.4915 3.1853M4.7493 3.00268C4.80531 3.00012 4.87922 3 5 3L4.7493 3.00268ZM5 3C5.1208 3 5.1947 3.00012 5.2507 3.00268L5 3ZM5.2507 3.00268C5.2976 3.00481 5.31295 3.0081 5.3147 3.00852L5.2507 3.00268ZM7.95345 5.99995C7.96895 6 7.98445 6 8 6C8.01555 6 8.03105 6 8.04655 5.99995C8.2309 5.99965 8.4121 5.99935 8.5735 6.0426C9.0049 6.1582 9.3418 6.4951 9.4574 6.9265C9.50065 7.0879 9.50035 7.2691 9.50005 7.45345C9.50005 7.46895 9.5 7.48445 9.5 7.5H10.5C10.7761 7.5 11 7.72385 11 8C11 8.27615 10.7761 8.5 10.5 8.5H9.5C9.5 8.51555 9.50005 8.53105 9.50005 8.54655C9.50035 8.7309 9.50065 8.9121 9.4574 9.07355C9.3418 9.5049 9.0049 9.84185 8.5735 9.9574C8.4121 10.0007 8.2309 10.0003 8.04655 10C8.03105 10 8.01555 10 8 10C7.98445 10 7.96895 10 7.95345 10C7.7691 10.0003 7.5879 10.0007 7.4265 9.9574C6.9951 9.84185 6.6582 9.5049 6.5426 9.07355C6.49935 8.9121 6.49965 8.7309 6.49995 8.54655C6.49995 8.53105 6.5 8.51555 6.5 8.5H2.5C2.22386 8.5 2 8.27615 2 8C2 7.72385 2.22386 7.5 2.5 7.5H6.5C6.5 7.4845 6.49995 7.46895 6.49995 7.45345C6.49965 7.2691 6.49935 7.0879 6.5426 6.9265C6.6582 6.4951 6.9951 6.1582 7.4265 6.0426C7.5879 5.99935 7.7691 5.99965 7.95345 5.99995ZM7.7493 7.0027C7.696 7.0051 7.68345 7.009 7.6853 7.0085C7.599 7.03165 7.53165 7.09905 7.5085 7.1853C7.509 7.18345 7.5051 7.196 7.5027 7.2493C7.5001 7.3053 7.5 7.37925 7.5 7.5V8.5C7.5 8.6208 7.5001 8.6947 7.5027 8.7507C7.5051 8.80405 7.509 8.8166 7.5085 8.8147C7.53165 8.901 7.599 8.96835 7.6853 8.9915C7.68345 8.991 7.696 8.9949 7.7493 8.99735C7.8053 8.9999 7.8792 9 8 9C8.1208 9 8.1947 8.9999 8.2507 8.99735C8.304 8.9949 8.31655 8.991 8.3147 8.9915C8.401 8.96835 8.46835 8.901 8.4915 8.8147C8.491 8.8166 8.4949 8.80405 8.4973 8.7507C8.4999 8.6947 8.5 8.6208 8.5 8.5V7.5C8.5 7.37925 8.4999 7.3053 8.4973 7.2493C8.4949 7.196 8.491 7.18345 8.4915 7.1853C8.46835 7.09905 8.401 7.03165 8.3147 7.0085C8.31655 7.009 8.304 7.0051 8.2507 7.0027C8.1947 7.0001 8.1208 7 8 7C7.8792 7 7.8053 7.0001 7.7493 7.0027Z" fill="#D71921"/>
</svg>
