<svg width="12" height="12" viewBox="0 0 12 12" fill="none" xmlns="http://www.w3.org/2000/svg">
<path d="M10.125 1.875H1.875C1.67616 1.87523 1.48552 1.95432 1.34492 2.09492C1.20432 2.23552 1.12523 2.42616 1.125 2.625V9.375C1.12523 9.57384 1.20432 9.76448 1.34492 9.90508C1.48552 10.0457 1.67616 10.1248 1.875 10.125H10.125C10.3238 10.1248 10.5145 10.0457 10.6551 9.90508C10.7957 9.76448 10.8748 9.57384 10.875 9.375V2.625C10.8748 2.42616 10.7957 2.23552 10.6551 2.09492C10.5145 1.95432 10.3238 1.87523 10.125 1.875ZM6 6.375C5.40347 6.37433 4.83156 6.13706 4.40975 5.71525C3.98794 5.29344 3.75067 4.72153 3.75 4.125C3.75 4.02554 3.78951 3.93016 3.85984 3.85984C3.93016 3.78951 4.02554 3.75 4.125 3.75C4.22446 3.75 4.31984 3.78951 4.39016 3.85984C4.46049 3.93016 4.5 4.02554 4.5 4.125C4.5 4.52282 4.65804 4.90436 4.93934 5.18566C5.22064 5.46696 5.60218 5.625 6 5.625C6.39782 5.625 6.77936 5.46696 7.06066 5.18566C7.34196 4.90436 7.5 4.52282 7.5 4.125C7.5 4.02554 7.53951 3.93016 7.60983 3.85984C7.68016 3.78951 7.77554 3.75 7.875 3.75C7.97446 3.75 8.06984 3.78951 8.14017 3.85984C8.21049 3.93016 8.25 4.02554 8.25 4.125C8.24933 4.72153 8.01206 5.29344 7.59025 5.71525C7.16844 6.13706 6.59653 6.37433 6 6.375Z" fill="#D71921"/>
</svg>
